<?xml version="1.0" standalone="no"?>
<!DOCTYPE svg PUBLIC "-//W3C//DTD SVG 20010904//EN"
 "http://www.w3.org/TR/2001/REC-SVG-20010904/DTD/svg10.dtd">
<svg version="1.0" xmlns="http://www.w3.org/2000/svg"
 width="500.000000pt" height="500.000000pt" viewBox="0 0 500.000000 500.000000"
 preserveAspectRatio="xMidYMid meet">

<g transform="translate(0.000000,500.000000) scale(0.100000,-0.100000)"
fill="#000000" stroke="none">
<path d="M3000 3559 c-19 -39 -51 -100 -72 -137 l-37 -66 -35 39 c-20 21 -38
37 -40 34 -2 -2 -6 -79 -8 -171 -1 -91 -2 -166 -2 -165 1 1 14 36 28 77 15 41
29 82 32 90 3 10 15 -1 35 -34 l30 -48 124 204 124 203 -66 23 c-37 12 -70 22
-73 22 -3 0 -22 -32 -40 -71z"/>
<path d="M3197 3476 c-47 -63 -83 -117 -80 -120 17 -17 47 4 147 99 105 100
109 104 85 113 -68 26 -61 30 -152 -92z"/>
<path d="M1863 3488 c-25 -12 -37 -37 -28 -59 3 -8 30 -27 61 -43 30 -16 67
-45 82 -64 26 -35 27 -39 24 -158 -1 -67 2 -134 8 -148 l10 -26 -110 0 -110 0
0 -246 c0 -245 0 -245 -21 -239 -12 4 -40 2 -63 -5 -41 -11 -43 -11 -169 57
-91 49 -127 73 -127 86 0 54 -63 104 -114 91 -39 -9 -40 -21 -4 -40 54 -27 58
-33 46 -60 -14 -29 -33 -30 -76 -4 -41 25 -42 25 -42 -5 0 -52 77 -99 125 -77
19 9 41 0 159 -65 115 -63 136 -78 136 -99 0 -46 62 -82 120 -70 l30 6 0 -70
0 -70 658 2 657 3 3 183 2 182 48 0 c26 0 66 9 90 20 l43 20 30 -22 c35 -26
134 -36 178 -18 59 24 84 131 32 138 -13 2 -55 -10 -92 -28 -75 -34 -106 -36
-101 -5 14 80 13 91 -7 109 -17 16 -25 17 -46 8 -13 -6 -27 -23 -31 -37 -7
-27 -1 -91 10 -115 14 -32 -70 -60 -131 -44 -22 6 -23 9 -25 208 l-3 201 -507
3 -508 2 -16 38 c-12 26 -18 77 -20 172 -2 74 -9 151 -15 170 -16 50 -52 95
-92 114 -40 18 -62 19 -94 4z m574 -631 c27 -27 28 -30 31 -160 3 -129 3 -133
-23 -171 l-27 -40 24 -93 c14 -51 22 -95 20 -98 -3 -3 -26 -5 -52 -5 l-47 0
-16 58 c-8 31 -20 76 -27 100 -9 35 -15 42 -35 42 -25 0 -25 0 -25 -100 l0
-100 -50 0 -50 0 0 301 0 301 125 -4 c121 -3 125 -4 152 -31z m353 18 c16 -8
34 -24 40 -34 5 -11 10 -81 10 -156 l0 -137 -29 -29 c-27 -26 -36 -29 -95 -29
l-65 0 -3 -97 -3 -98 -52 -3 -53 -3 0 294 c0 161 3 297 7 300 14 14 213 7 243
-8z m538 -159 c2 -10 1 -29 -3 -43 -5 -20 -8 -23 -20 -13 -15 13 -20 61 -8 74
11 10 28 1 31 -18z m-1553 -288 c19 -9 25 -19 25 -45 0 -38 3 -37 -43 -18 -44
18 -51 29 -37 55 12 23 20 24 55 8z"/>
<path d="M2267 2783 c-4 -3 -7 -49 -7 -100 l0 -94 48 3 47 3 3 91 c3 88 2 92
-20 98 -30 8 -63 8 -71 -1z"/>
<path d="M2650 2690 l0 -100 39 0 c47 0 51 8 51 106 0 71 -1 75 -26 84 -61 24
-64 20 -64 -90z"/>
<path d="M2450 3308 c-18 -68 -34 -125 -35 -127 -2 -2 -16 6 -31 18 -32 25
-57 27 -78 5 -36 -36 -14 -74 51 -88 41 -9 55 11 97 146 l32 103 27 -40 c15
-22 27 -49 27 -60 1 -38 29 26 30 67 0 31 -5 40 -35 58 -19 12 -35 26 -35 31
0 5 -4 9 -9 9 -5 0 -23 -55 -41 -122z"/>
<path d="M3380 3363 c-66 -34 -90 -75 -90 -151 0 -61 16 -103 54 -149 l28 -33
-22 -35 c-12 -19 -36 -46 -53 -60 l-32 -25 40 0 c56 0 101 15 143 46 29 23 44
27 84 25 179 -9 288 158 194 300 -68 102 -231 141 -346 82z"/>
<path d="M1733 3350 c-30 -12 -30 -54 -1 -74 24 -17 94 -21 116 -7 47 29 -59
103 -115 81z"/>
<path d="M1472 3073 c11 -49 24 -92 29 -97 4 -5 43 22 89 64 45 40 77 76 73
80 -7 7 -176 40 -201 40 -5 0 -1 -38 10 -87z"/>
<path d="M1488 2814 c-5 -4 -8 -17 -8 -29 0 -18 5 -20 33 -17 25 2 43 -5 86
-37 29 -23 62 -41 72 -41 28 0 25 38 -5 50 -13 5 -40 23 -60 40 -35 31 -102
51 -118 34z"/>
<path d="M3331 2453 c-6 -14 -10 -27 -9 -29 2 -1 48 -4 102 -5 95 -2 100 -1
108 21 5 13 7 24 6 25 -2 1 -46 5 -99 8 l-96 6 -12 -26z"/>
<path d="M3215 2400 c-2 -4 -7 -25 -11 -46 l-6 -39 79 -24 c43 -13 111 -32
151 -41 l73 -18 11 27 c14 35 38 103 38 106 0 11 -329 45 -335 35z"/>
<path d="M1900 1720 c0 -132 1 -140 19 -140 17 0 20 8 23 47 4 64 23 65 39 3
11 -43 16 -50 37 -50 18 0 23 4 18 16 -14 36 -18 92 -7 98 15 10 14 139 -1
154 -7 7 -38 12 -70 12 l-58 0 0 -140z m90 50 c0 -47 -2 -50 -25 -50 -23 0
-25 3 -25 50 0 47 2 50 25 50 23 0 25 -3 25 -50z"/>
<path d="M2080 1720 l0 -140 71 0 c67 0 70 1 67 23 -3 19 -10 22 -50 25 -47 3
-48 4 -48 38 0 33 1 34 40 34 33 0 40 3 40 19 0 16 -8 20 -37 23 -36 3 -38 5
-38 38 0 35 0 35 48 38 39 3 47 6 47 23 0 17 -7 19 -70 19 l-70 0 0 -140z"/>
<path d="M2260 1720 l0 -140 54 0 c76 0 86 16 86 137 0 50 -4 103 -10 117 -9
24 -14 26 -70 26 l-60 0 0 -140z m88 3 l3 -93 -26 0 -25 0 0 96 c0 93 1 95 23
92 21 -3 22 -8 25 -95z"/>
<path d="M2430 1720 l0 -140 25 0 c24 0 25 3 25 60 0 57 1 60 25 60 24 0 25
-3 25 -60 0 -53 2 -60 20 -60 19 0 20 7 20 140 0 132 -1 140 -20 140 -16 0
-19 -8 -22 -57 -3 -51 -6 -58 -25 -61 -22 -3 -23 0 -23 57 0 58 -1 61 -25 61
l-25 0 0 -140z"/>
<path d="M2610 1720 l0 -140 70 0 c68 0 70 1 70 25 0 23 -4 25 -45 25 -45 0
-45 0 -45 35 0 33 2 35 35 35 28 0 35 4 35 20 0 16 -7 20 -35 20 -34 0 -35 1
-35 40 l0 40 45 0 c38 0 45 3 45 20 0 18 -7 20 -70 20 l-70 0 0 -140z"/>
<path d="M2790 1720 l0 -141 68 3 c59 3 67 5 67 23 0 17 -8 20 -47 23 l-48 3
0 115 c0 107 -1 114 -20 114 -19 0 -20 -7 -20 -140z"/>
<path d="M2960 1720 l0 -140 25 0 c23 0 25 3 25 50 0 50 0 50 33 50 47 0 57
15 57 90 0 38 -5 71 -12 78 -7 7 -38 12 -70 12 l-58 0 0 -140z m95 50 c0 -39
-3 -45 -22 -48 -21 -3 -23 0 -23 48 0 48 2 51 23 48 19 -3 22 -9 22 -48z"/>
<path d="M1626 1434 c-9 -8 -16 -23 -15 -32 0 -14 2 -14 6 -2 3 8 12 23 21 33
19 21 9 23 -12 1z"/>
<path d="M2734 1431 c22 -25 17 -56 -9 -56 -16 0 -20 7 -20 32 0 18 -4 28 -8
24 -13 -13 -4 -53 15 -65 14 -8 21 -7 34 6 20 20 12 63 -13 72 -15 6 -15 5 1
-13z"/>
<path d="M3520 1446 c0 -2 7 -9 15 -16 9 -7 15 -8 15 -2 0 5 -7 12 -15 16 -8
3 -15 4 -15 2z"/>
<path d="M3740 1435 c-7 -9 -11 -17 -9 -20 3 -2 10 5 17 15 14 24 10 26 -8 5z"/>
<path d="M1273 1426 c1 -11 9 -21 17 -23 10 -3 11 -2 4 4 -6 4 -14 15 -17 23
-5 11 -6 9 -4 -4z"/>
<path d="M1384 1400 c1 -30 4 -35 26 -35 22 0 25 5 26 35 1 35 1 35 -3 3 -3
-24 -9 -33 -23 -33 -14 0 -20 9 -23 33 -4 32 -4 32 -3 -3z"/>
<path d="M1502 1400 c0 -25 2 -37 5 -27 2 9 10 17 16 17 9 0 9 2 1 8 -7 4 -14
16 -17 27 -2 11 -5 0 -5 -25z"/>
<path d="M1544 1420 c0 -11 4 -20 8 -20 4 0 8 9 8 20 0 11 -4 20 -8 20 -4 0
-8 -9 -8 -20z"/>
<path d="M1665 1407 c0 -27 -4 -32 -23 -31 -16 0 -20 -2 -12 -10 7 -7 16 -7
28 0 19 12 28 52 15 65 -4 4 -8 -6 -8 -24z"/>
<path d="M1743 1400 c0 -25 2 -35 4 -22 2 12 2 32 0 45 -2 12 -4 2 -4 -23z"/>
<path d="M1778 1415 c-3 -14 1 -33 9 -42 8 -10 11 -11 7 -3 -4 8 -7 27 -6 42
3 35 -4 37 -10 3z"/>
<path d="M1873 1400 c0 -25 2 -35 4 -22 2 12 2 32 0 45 -2 12 -4 2 -4 -23z"/>
<path d="M1961 1403 c-1 -42 0 -43 32 -42 30 2 30 2 5 6 -34 5 -37 30 -5 36
22 4 22 4 0 6 -12 0 -24 9 -26 19 -3 9 -5 -2 -6 -25z"/>
<path d="M2143 1426 c1 -11 9 -21 17 -23 10 -3 11 -2 4 4 -6 4 -14 15 -17 23
-5 11 -6 9 -4 -4z"/>
<path d="M2251 1403 c-1 -42 0 -43 32 -42 30 2 30 2 5 6 -34 5 -37 30 -5 36
22 4 22 4 0 6 -12 0 -24 9 -26 19 -3 9 -5 -2 -6 -25z"/>
<path d="M2361 1398 l2 -43 7 35 c4 19 8 29 9 21 0 -8 3 -12 6 -9 8 7 -5 38
-16 38 -5 0 -8 -19 -8 -42z"/>
<path d="M2427 1433 c-4 -3 -7 -11 -7 -17 0 -6 5 -5 12 2 6 6 9 14 7 17 -3 3
-9 2 -12 -2z"/>
<path d="M2576 1425 c-3 -9 -6 -22 -5 -28 0 -7 5 -1 10 12 5 13 8 26 5 28 -2
2 -6 -3 -10 -12z"/>
<path d="M2820 1431 c0 -5 5 -13 10 -16 6 -3 10 -2 10 4 0 5 -4 13 -10 16 -5
3 -10 2 -10 -4z"/>
<path d="M2876 1424 c-4 -9 -4 -19 -1 -22 3 -3 6 1 6 9 1 8 5 -2 9 -21 l7 -35
2 43 c1 42 -11 56 -23 26z"/>
<path d="M2962 1400 c0 -25 2 -37 5 -27 2 9 10 17 16 17 9 0 9 2 1 8 -7 4 -14
16 -17 27 -2 11 -5 0 -5 -25z"/>
<path d="M3004 1420 c0 -11 4 -20 8 -20 4 0 8 9 8 20 0 11 -4 20 -8 20 -4 0
-8 -9 -8 -20z"/>
<path d="M3082 1403 c-2 -41 -1 -43 26 -42 22 1 23 2 5 6 -17 3 -23 13 -26 41
l-4 37 -1 -42z"/>
<path d="M3183 1400 c0 -25 2 -35 4 -22 2 12 2 32 0 45 -2 12 -4 2 -4 -23z"/>
<path d="M3256 1425 c-3 -9 -6 -22 -5 -28 0 -7 5 -1 10 12 5 13 8 26 5 28 -2
2 -6 -3 -10 -12z"/>
<path d="M3390 1429 c0 -5 5 -7 10 -4 6 3 10 8 10 11 0 2 -4 4 -10 4 -5 0 -10
-5 -10 -11z"/>
<path d="M3497 1433 c-14 -13 -6 -59 11 -74 17 -15 20 -15 31 3 7 11 10 23 7
26 -3 3 -6 0 -6 -6 0 -7 -9 -12 -21 -12 -18 0 -21 5 -17 35 4 38 4 38 -5 28z"/>
<path d="M3617 1398 c-10 -24 -12 -37 -5 -30 16 16 45 15 51 0 4 -9 6 -8 6 2
0 8 -4 22 -9 30 -6 10 -10 11 -10 3 0 -7 -4 -13 -10 -13 -5 0 -10 7 -10 15 0
8 5 15 10 15 6 0 10 5 10 10 0 24 -18 7 -33 -32z"/>
<path d="M3778 1405 c4 -30 1 -35 -16 -35 -11 0 -23 7 -25 15 -4 11 -4 10 -3
-2 1 -12 10 -18 26 -18 20 0 26 6 28 29 2 16 0 32 -5 37 -5 5 -7 -6 -5 -26z"/>
<path d="M3414 1405 c3 -9 0 -15 -9 -15 -8 0 -15 6 -15 13 0 8 -4 7 -10 -3 -5
-8 -9 -22 -9 -30 0 -10 2 -11 6 -2 6 15 35 16 51 0 10 -10 10 -6 1 20 -6 17
-13 32 -16 32 -3 0 -3 -7 1 -15z"/>
<path d="M1312 1388 c2 -8 -6 -13 -19 -12 -12 0 -20 -3 -17 -8 3 -4 13 -8 24
-8 20 0 35 26 19 35 -5 4 -8 1 -7 -7z"/>
<path d="M2182 1388 c2 -8 -6 -13 -19 -12 -12 0 -20 -3 -17 -8 3 -4 13 -8 24
-8 20 0 35 26 19 35 -5 4 -8 1 -7 -7z"/>
<path d="M2410 1391 c0 -7 -4 -9 -10 -6 -5 3 -10 2 -10 -4 0 -5 4 -12 9 -15
10 -6 25 24 16 32 -3 3 -5 0 -5 -7z"/>
<path d="M2847 1382 c1 -8 3 -16 3 -18 0 -3 5 -2 10 1 6 3 10 11 10 16 0 6 -4
8 -9 5 -5 -4 -11 -3 -14 1 -2 5 -2 2 0 -5z"/>
<path d="M2821 1374 c0 -11 3 -14 6 -6 3 7 2 16 -1 19 -3 4 -6 -2 -5 -13z"/>
<path d="M2587 1368 c2 -5 10 -8 18 -8 8 0 16 3 18 8 3 4 -5 7 -18 7 -13 0
-21 -3 -18 -7z"/>
<path d="M3267 1368 c2 -5 10 -8 18 -8 8 0 16 3 18 8 3 4 -5 7 -18 7 -13 0
-21 -3 -18 -7z"/>
</g>
</svg>
